<svg width="49" height="40" viewBox="0 0 49 40" fill="none" xmlns="http://www.w3.org/2000/svg">
<g clip-path="url(#clip0_5005_12539)">
<path d="M8.40009 8.85547L13.1803 17.3997V22.6114L8.40568 31.1389L8.40009 8.85547Z" fill="#5B57A2"/>
<path d="M26.7541 14.291L31.2333 11.5457L40.4002 11.5371L26.7541 19.8968V14.291Z" fill="#D90751"/>
<path d="M26.7286 8.80527L26.7539 20.1175L21.9626 17.1735V0.263672L26.7286 8.80527Z" fill="#FAB718"/>
<path d="M40.4 11.5368L31.2328 11.5453L26.7286 8.80527L21.9626 0.263672L40.4 11.5368Z" fill="#ED6F26"/>
<path d="M26.7539 31.187V25.6986L21.9625 22.8105L21.9652 39.7372L26.7539 31.187Z" fill="#63B22F"/>
<path d="M31.222 28.4659L13.1799 17.3997L8.40009 8.85547L40.3807 28.4547L31.222 28.4659Z" fill="#1487C9"/>
<path d="M21.9655 39.7368L26.7536 31.1866L31.2216 28.4663L40.3803 28.4551L21.9655 39.7368Z" fill="#017F36"/>
<path d="M8.40582 31.1392L22.0019 22.8104L17.431 20.0059L13.1804 22.6117L8.40582 31.1392Z" fill="#984995"/>
</g>
<defs>
<clipPath id="clip0_5005_12539">
<rect width="32" height="39.4729" fill="white" transform="translate(8.40002 0.263672)"/>
</clipPath>
</defs>
</svg>
