<svg width="25" height="25" viewBox="0 0 25 25" fill="none" xmlns="http://www.w3.org/2000/svg">
<g clip-path="url(#clip0_2270_26588)">
<g clip-path="url(#clip1_2270_26588)">
<path fill-rule="evenodd" clip-rule="evenodd" d="M12.5 19C16.0899 19 19 16.0899 19 12.5C19 8.91015 16.0899 6 12.5 6C8.91015 6 6 8.91015 6 12.5C6 16.0899 8.91015 19 12.5 19ZM10.05 10.66C10.05 9.32586 11.1257 8.25 12.46 8.25C13.7942 8.25 14.8699 9.32586 14.8699 10.66C14.8699 11.7129 14.1777 12.2686 13.7247 12.5782C13.5302 12.7126 13.4049 12.8182 13.3238 12.9271C13.2563 13.0175 13.21 13.1221 13.21 13.29V13.5C13.21 13.9142 12.8742 14.25 12.46 14.25C12.0458 14.25 11.71 13.9142 11.71 13.5V13.29C11.71 12.2132 12.4187 11.6572 12.8739 11.3428L12.877 11.3407L12.877 11.3407C13.0622 11.2142 13.1834 11.111 13.2611 11.006C13.3262 10.9182 13.3699 10.8178 13.3699 10.66C13.3699 10.1542 12.9657 9.75 12.46 9.75C11.9542 9.75 11.55 10.1542 11.55 10.66C11.55 11.0742 11.2142 11.41 10.8 11.41C10.3858 11.41 10.05 11.0742 10.05 10.66ZM12.4555 15.1406C12.0412 15.1406 11.7055 15.4764 11.7055 15.8906C11.7055 16.3048 12.0412 16.6406 12.4555 16.6406H12.4645C12.8787 16.6406 13.2145 16.3048 13.2145 15.8906C13.2145 15.4764 12.8787 15.1406 12.4645 15.1406H12.4555Z" fill="#CACACA"/>
</g>
</g>
<defs>
<clipPath id="clip0_2270_26588">
<rect width="25" height="25" rx="12" fill="white"/>
</clipPath>
<clipPath id="clip1_2270_26588">
<rect width="25" height="25" fill="white"/>
</clipPath>
</defs>
</svg>
