<svg width="49" height="14" viewBox="0 0 49 14" fill="none" xmlns="http://www.w3.org/2000/svg">
<g clip-path="url(#clip0_5005_12505)">
<path d="M0.200073 0.451351H4.70322C5.1126 0.451351 6.34073 0.314892 6.88656 2.22532C7.29594 3.45345 7.84178 5.36388 8.66053 8.22952H8.93345C9.7522 5.22742 10.4345 3.18053 10.7074 2.22532C11.2533 0.314892 12.6178 0.451351 13.1637 0.451351H17.3939V13.5514H13.0272V5.77325H12.7543L10.4345 13.5514H7.15948L4.83968 5.77325H4.4303V13.5514H0.200073M19.1679 0.451351H23.5346V8.22952H23.9439L26.8096 1.81594C27.3554 0.58781 28.5835 0.451351 28.5835 0.451351H32.6773V13.5514H28.3106V5.77325H28.0377L25.1721 12.1868C24.6262 13.415 23.2616 13.5514 23.2616 13.5514H19.1679M38.5451 9.59411V13.5514H34.4513V6.72847H47.8243C47.2784 8.36597 45.368 9.59411 43.1847 9.59411" fill="#0F754E"/>
<path d="M48.0972 5.90953C48.643 3.45327 47.0055 0.451172 43.4576 0.451172H34.1783C34.4513 3.31681 36.9075 5.90953 39.5002 5.90953" fill="url(#paint0_linear_5005_12505)"/>
</g>
<defs>
<linearGradient id="paint0_linear_5005_12505" x1="46.4597" y1="-1.3228" x2="35.5429" y2="-1.3228" gradientUnits="userSpaceOnUse">
<stop stop-color="#1F5CD7"/>
<stop offset="1" stop-color="#02AEFF"/>
</linearGradient>
<clipPath id="clip0_5005_12505">
<rect width="48" height="13.1022" fill="white" transform="translate(0.200012 0.449219)"/>
</clipPath>
</defs>
</svg>
