<svg width="49" height="10" viewBox="0 0 49 10" fill="none" xmlns="http://www.w3.org/2000/svg">
<g opacity="0.8">
<g clip-path="url(#clip0_5005_5856)">
<path d="M0.599854 9.01892V0.980469H3.19839C4.18194 0.980469 4.82551 1.0169 5.12907 1.1019C5.59049 1.22332 5.97906 1.49046 6.28263 1.89117C6.59834 2.29188 6.74405 2.81402 6.74405 3.45758C6.74405 3.95543 6.65905 4.36828 6.47691 4.69613C6.29477 5.03612 6.0762 5.29112 5.79692 5.4854C5.51764 5.67969 5.23836 5.80111 4.95907 5.86183C4.57051 5.93468 4.01195 5.97111 3.27124 5.97111H2.21483V9.00678L0.599854 9.01892ZM2.22697 2.34045V4.62327H3.11339C3.75695 4.62327 4.18194 4.58684 4.40051 4.50184C4.61908 4.41685 4.78908 4.28328 4.9105 4.11328C5.03193 3.93114 5.09264 3.72471 5.09264 3.494C5.09264 3.20258 5.00764 2.95973 4.83765 2.76544C4.66765 2.57116 4.44908 2.46188 4.18194 2.41331C3.98766 2.37688 3.59909 2.35259 3.01625 2.35259C3.0041 2.34045 2.22697 2.34045 2.22697 2.34045Z" fill="black"/>
<path d="M14.5032 9.01892H12.7425L12.0383 7.19752H8.8326L8.16475 9.01892H6.44049L9.5733 0.980469H11.2854L14.5032 9.01892ZM11.5161 5.83754L10.4111 2.86258L9.33045 5.83754H11.5161Z" fill="black"/>
<path d="M16.446 9.0185V5.64284L13.5075 0.992188H15.4139L17.3082 4.17357L19.166 0.992188H21.036L18.0853 5.65497V9.0185H16.446Z" fill="black"/>
<path d="M21.8131 9.01892V0.980469H27.763V2.34045H23.4281V4.12542H27.4595V5.47326H23.4281V7.65894H27.9209V9.01892H21.8131Z" fill="#64B3DF"/>
<path d="M29.293 9.01892V0.980469H35.2429V2.34045H30.9201V4.12542H34.9515V5.47326H30.9201V7.65894H35.4129V9.01892H29.293Z" fill="#64B3DF"/>
<path d="M36.785 9.01892V0.980469H40.1971C41.0593 0.980469 41.6785 1.05333 42.0671 1.19904C42.4557 1.34475 42.7714 1.59975 43.0021 1.96403C43.2328 2.32831 43.3542 2.7533 43.3542 3.22686C43.3542 3.834 43.1721 4.33185 42.8199 4.72042C42.4678 5.10898 41.9335 5.36398 41.2293 5.46112C41.5814 5.66754 41.8728 5.88611 42.1035 6.14111C42.3342 6.38396 42.6378 6.8211 43.0264 7.44037L44.0099 9.00678H42.0671L40.8893 7.25823C40.4764 6.63896 40.185 6.23825 40.0393 6.08039C39.8814 5.92254 39.7236 5.80111 39.5536 5.7404C39.3836 5.67969 39.1043 5.6554 38.74 5.6554H38.4122V9.01892H36.785ZM38.4 4.38042H39.6021C40.3793 4.38042 40.865 4.34399 41.0593 4.28328C41.2535 4.22256 41.3993 4.10114 41.5085 3.94328C41.6178 3.78543 41.6785 3.579 41.6785 3.33615C41.6785 3.06901 41.6057 2.85044 41.46 2.68044C41.3143 2.51045 41.1078 2.41331 40.8528 2.36474C40.7193 2.34045 40.3307 2.34045 39.675 2.34045H38.4V4.38042Z" fill="#64B3DF"/>
<path d="M48.5999 6.77331C48.5999 7.39259 48.3813 7.92687 47.9442 8.36401C47.5071 8.80114 46.9849 9.01971 46.3657 9.01971C45.7464 9.01971 45.2243 8.80114 44.7871 8.36401C44.35 7.92687 44.1436 7.39259 44.1436 6.77331C44.1436 6.15404 44.3621 5.6319 44.7993 5.19477C45.2364 4.75763 45.7585 4.53906 46.3778 4.53906C46.9971 4.53906 47.5192 4.75763 47.9564 5.19477C48.3935 5.6319 48.5999 6.15404 48.5999 6.77331ZM46.3535 4.85477C45.8192 4.85477 45.37 5.04905 44.9935 5.42548C44.6171 5.8019 44.435 6.25118 44.435 6.78546C44.435 7.31974 44.6171 7.78116 44.9935 8.15758C45.37 8.534 45.8192 8.72829 46.3535 8.72829C46.8878 8.72829 47.3371 8.534 47.7135 8.15758C48.0899 7.78116 48.2721 7.31974 48.2721 6.78546C48.2721 6.25118 48.0899 5.8019 47.7135 5.42548C47.3492 5.03691 46.8878 4.85477 46.3535 4.85477ZM46.3171 5.5469C46.6207 5.5469 46.8392 5.57119 46.9849 5.6319C47.2399 5.74119 47.3614 5.94761 47.3614 6.25118C47.3614 6.46975 47.2764 6.6276 47.1185 6.73689C47.0335 6.7976 46.9121 6.83403 46.7664 6.85831C46.9607 6.89474 47.0942 6.9676 47.1914 7.10117C47.2764 7.23474 47.3249 7.35616 47.3249 7.47759V7.65973C47.3249 7.72044 47.3249 7.78116 47.3249 7.84187C47.3249 7.90258 47.3371 7.95115 47.3492 7.97544L47.3614 8.01187H46.9607C46.9607 7.99973 46.9607 7.99972 46.9485 7.98758C46.9485 7.97544 46.9485 7.97544 46.9485 7.9633L46.9364 7.89044V7.69616C46.9364 7.41688 46.8635 7.22259 46.7057 7.13759C46.6085 7.08902 46.4507 7.05259 46.22 7.05259H45.8921V8.02401H45.455V5.57119H46.3171V5.5469ZM46.9485 6.28761C46.9485 6.10547 46.8878 5.98404 46.7907 5.92333C46.6814 5.86261 46.5114 5.82619 46.2685 5.82619H45.9042V6.7126H46.2928C46.4749 6.7126 46.6085 6.68832 46.7057 6.65189C46.8635 6.60332 46.9485 6.48189 46.9485 6.28761Z" fill="black"/>
</g>
</g>
<defs>
<clipPath id="clip0_5005_5856">
<rect width="48" height="8.03845" fill="white" transform="translate(0.599976 0.980469)"/>
</clipPath>
</defs>
</svg>
