<svg width="48" height="32" viewBox="0 0 48 32" fill="none" xmlns="http://www.w3.org/2000/svg">
<g clip-path="url(#clip0_5005_17457)">
<path d="M21.8381 0.238281C19.5684 0.238281 17.5399 1.41492 17.5399 3.58836C17.5399 6.08116 21.1373 6.25332 21.1373 7.5058C21.1373 8.03316 20.5332 8.50516 19.5008 8.50516C18.0362 8.50516 16.9415 7.84564 16.9415 7.84564L16.473 10.0392C16.473 10.0392 17.7341 10.5964 19.4084 10.5964C21.89 10.5964 23.8429 9.36212 23.8429 7.15124C23.8429 4.517 20.2304 4.34996 20.2304 3.18772C20.2304 2.7746 20.7264 2.32212 21.7556 2.32212C22.9168 2.32212 23.864 2.8018 23.864 2.8018L24.3226 0.683401C24.3226 0.683401 23.2916 0.238281 21.8378 0.238281H21.8381ZM1.07108 0.398281L1.01604 0.717961C1.01604 0.717961 1.97092 0.892681 2.83108 1.24148C3.9386 1.64116 4.01732 1.87412 4.20388 2.59668L6.2362 10.4312H8.96068L13.1578 0.398281H10.4397L7.74276 7.21972L6.64228 1.43732C6.54148 0.775561 6.03012 0.397961 5.40452 0.397961H1.0714L1.07108 0.398281ZM14.2509 0.398281L12.1188 10.4312H14.7108L16.8352 0.398281H14.2509ZM28.7072 0.398281C28.0823 0.398281 27.7511 0.733001 27.5082 1.31764L23.7108 10.4312H26.4288L26.9546 8.9122H30.266L30.5856 10.4312H32.984L30.8919 0.398281H28.7072ZM29.0608 3.109L29.8666 6.8738H27.7082L29.0612 3.109H29.0608Z" fill="#1434CB"/>
</g>
<g clip-path="url(#clip1_5005_17457)">
<path d="M36.7773 16.3145H29.2001V29.9277H36.7773V16.3145Z" fill="#FF5A00"/>
<path d="M29.7045 23.1199C29.7045 20.3541 31.0047 17.8993 32.9999 16.3132C31.5316 15.1587 29.6793 14.4609 27.6589 14.4609C22.8726 14.4609 18.9999 18.3336 18.9999 23.1199C18.9999 27.9061 22.8726 31.7788 27.6589 31.7788C29.6793 31.7788 31.5316 31.081 32.9999 29.9265C31.0019 28.3629 29.7045 25.8857 29.7045 23.1199Z" fill="#EB001B"/>
<path d="M46.9999 23.1199C46.9999 27.9061 43.1272 31.7788 38.341 31.7788C36.3206 31.7788 34.4683 31.081 32.9999 29.9265C35.0204 28.3376 36.2954 25.8857 36.2954 23.1199C36.2954 20.3541 34.9951 17.8993 32.9999 16.3132C34.4655 15.1587 36.3178 14.4609 38.3382 14.4609C43.1272 14.4609 46.9999 18.3589 46.9999 23.1199Z" fill="#F79E1B"/>
</g>
<defs>
<clipPath id="clip0_5005_17457">
<rect width="32" height="10.3898" fill="white" transform="translate(1 0.222656)"/>
</clipPath>
<clipPath id="clip1_5005_17457">
<rect width="28" height="17.3179" fill="white" transform="translate(19 14.459)"/>
</clipPath>
</defs>
</svg>
